<svg viewBox="0 0 200 200" xmlns="http://www.w3.org/2000/svg">
    <g transform="translate(100, 100)" stroke="darkblue" stroke-width="2.5" fill="none" stroke-linecap="round" stroke-linejoin="round">
        
        <line x1="0" y1="-75" x2="-43.3" y2="-37.5" />
        <line x1="0" y1="-75" x2="-26.7" y2="-37.5" />
        <line x1="0" y1="-75" x2="26.7" y2="-37.5" />
        <line x1="0" y1="-75" x2="43.3" y2="-37.5" />
        <line x1="0" y1="-75" x2="0" y2="-37.5" />
        
        <line x1="-43.3" y1="-37.5" x2="-26.7" y2="-37.5" />
        <line x1="-26.7" y1="-37.5" x2="0" y2="-37.5" />
        <line x1="0" y1="-37.5" x2="26.7" y2="-37.5" />
        <line x1="26.7" y1="-37.5" x2="43.3" y2="-37.5" />
        <line x1="43.3" y1="-37.5" x2="-43.3" y2="-37.5" />
        
        <line x1="-43.3" y1="-37.5" x2="-70" y2="0" />
        <line x1="-43.3" y1="-37.5" x2="-43.3" y2="0" />
        <line x1="-26.7" y1="-37.5" x2="-43.3" y2="0" />
        <line x1="-26.7" y1="-37.5" x2="0" y2="0" />
        <line x1="0" y1="-37.5" x2="0" y2="0" />
        <line x1="26.7" y1="-37.5" x2="0" y2="0" />
        <line x1="26.7" y1="-37.5" x2="43.3" y2="0" />
        <line x1="43.3" y1="-37.5" x2="43.3" y2="0" />
        <line x1="43.3" y1="-37.5" x2="70" y2="0" />
        
        <line x1="-70" y1="0" x2="-43.3" y2="0" />
        <line x1="-43.3" y1="0" x2="0" y2="0" />
        <line x1="0" y1="0" x2="43.3" y2="0" />
        <line x1="43.3" y1="0" x2="70" y2="0" />
        <line x1="70" y1="0" x2="-70" y2="0" />
        
        <line x1="-70" y1="0" x2="-43.3" y2="37.5" />
        <line x1="-43.3" y1="0" x2="-43.3" y2="37.5" />
        <line x1="-43.3" y1="0" x2="-26.7" y2="37.5" />
        <line x1="0" y1="0" x2="-26.7" y2="37.5" />
        <line x1="0" y1="0" x2="0" y2="37.5" />
        <line x1="0" y1="0" x2="26.7" y2="37.5" />
        <line x1="43.3" y1="0" x2="26.7" y2="37.5" />
        <line x1="43.3" y1="0" x2="43.3" y2="37.5" />
        <line x1="70" y1="0" x2="43.3" y2="37.5" />
        
        <line x1="-43.3" y1="37.5" x2="-26.7" y2="37.5" />
        <line x1="-26.7" y1="37.5" x2="0" y2="37.5" />
        <line x1="0" y1="37.5" x2="26.7" y2="37.5" />
        <line x1="26.7" y1="37.5" x2="43.3" y2="37.5" />
        <line x1="43.3" y1="37.5" x2="-43.3" y2="37.5" />
        
        <line x1="-43.3" y1="37.5" x2="0" y2="75" />
        <line x1="-26.7" y1="37.5" x2="0" y2="75" />
        <line x1="0" y1="37.5" x2="0" y2="75" />
        <line x1="26.7" y1="37.5" x2="0" y2="75" />
        <line x1="43.3" y1="37.5" x2="0" y2="75" />
        
    </g>
</svg>

